STARTFONT 2.1
COMMENT @(#)saxsmall.bdf        1.1 94/05/09
FONT -Soliton-APL-Medium-R-Normal-saxsmall-11-110-72-72-C-80-SAX8859-1
SIZE 11 72 72
FONTBOUNDINGBOX 8 11 0 -3
STARTPROPERTIES 21
FONTNAME_REGISTRY ""
FOUNDRY "Soliton"
FAMILY_NAME "APL"
WEIGHT_NAME "Medium"
SLANT "R"
SETWIDTH_NAME "Normal"
ADD_STYLE_NAME "saxsmall"
PIXEL_SIZE 11
POINT_SIZE 110
RESOLUTION_X 72
RESOLUTION_Y 72
SPACING "C"
AVERAGE_WIDTH 80
CHARSET_REGISTRY "SAX8859"
CHARSET_ENCODING "1"
COPYRIGHT "Copyright (c) 1993, 1995 Soliton Associates Ltd."
FONT "-Soliton-APL-Medium-R-Normal-saxsmall-11-110-72-72-C-80-SAX8859-1"
WEIGHT 10
FONT_ASCENT 8
FONT_DESCENT 3
DEFAULT_CHAR 255
ENDPROPERTIES
CHARS 256
STARTCHAR <unknown>
ENCODING 0
SWIDTH 42 0
DWIDTH 8 0
BBX 0 0 8 8
BITMAP
ENDCHAR
STARTCHAR <unknown>
ENCODING 1
SWIDTH 42 0
DWIDTH 8 0
BBX 0 0 8 8
BITMAP
ENDCHAR
STARTCHAR <unknown>
ENCODING 2
SWIDTH 42 0
DWIDTH 8 0
BBX 0 0 8 8
BITMAP
ENDCHAR
STARTCHAR <unknown>
ENCODING 3
SWIDTH 42 0
DWIDTH 8 0
BBX 0 0 8 8
BITMAP
ENDCHAR
STARTCHAR <unknown>
ENCODING 4
SWIDTH 42 0
DWIDTH 8 0
BBX 0 0 8 8
BITMAP
ENDCHAR
STARTCHAR <unknown>
ENCODING 5
SWIDTH 42 0
DWIDTH 8 0
BBX 0 0 8 8
BITMAP
ENDCHAR
STARTCHAR <unknown>
ENCODING 6
SWIDTH 42 0
DWIDTH 8 0
BBX 0 0 8 8
BITMAP
ENDCHAR
STARTCHAR <unknown>
ENCODING 7
SWIDTH 42 0
DWIDTH 8 0
BBX 0 0 8 8
BITMAP
ENDCHAR
STARTCHAR <unknown>
ENCODING 8
SWIDTH 42 0
DWIDTH 8 0
BBX 0 0 8 8
BITMAP
ENDCHAR
STARTCHAR <unknown>
ENCODING 9
SWIDTH 42 0
DWIDTH 8 0
BBX 0 0 8 8
BITMAP
ENDCHAR
STARTCHAR <unknown>
ENCODING 10
SWIDTH 42 0
DWIDTH 8 0
BBX 0 0 8 8
BITMAP
ENDCHAR
STARTCHAR <unknown>
ENCODING 11
SWIDTH 42 0
DWIDTH 8 0
BBX 0 0 8 8
BITMAP
ENDCHAR
STARTCHAR <unknown>
ENCODING 12
SWIDTH 42 0
DWIDTH 8 0
BBX 0 0 8 8
BITMAP
ENDCHAR
STARTCHAR <unknown>
ENCODING 13
SWIDTH 42 0
DWIDTH 8 0
BBX 0 0 8 8
BITMAP
ENDCHAR
STARTCHAR <unknown>
ENCODING 14
SWIDTH 42 0
DWIDTH 8 0
BBX 0 0 8 8
BITMAP
ENDCHAR
STARTCHAR <unknown>
ENCODING 15
SWIDTH 42 0
DWIDTH 8 0
BBX 0 0 8 8
BITMAP
ENDCHAR
STARTCHAR <unknown>
ENCODING 16
SWIDTH 42 0
DWIDTH 8 0
BBX 5 7 3 -3
BITMAP
F8
F8
C0
C0
C0
C0
C0
ENDCHAR
STARTCHAR <unknown>
ENCODING 17
SWIDTH 42 0
DWIDTH 8 0
BBX 8 7 0 -3
BITMAP
FF
FF
18
18
18
18
18
ENDCHAR
STARTCHAR <unknown>
ENCODING 18
SWIDTH 42 0
DWIDTH 8 0
BBX 5 7 0 -3
BITMAP
F8
F8
18
18
18
18
18
ENDCHAR
STARTCHAR <unknown>
ENCODING 19
SWIDTH 42 0
DWIDTH 8 0
BBX 5 11 3 -3
BITMAP
C0
C0
C0
C0
F8
F8
C0
C0
C0
C0
C0
ENDCHAR
STARTCHAR <unknown>
ENCODING 20
SWIDTH 42 0
DWIDTH 8 0
BBX 8 11 0 -3
BITMAP
18
18
18
18
FF
FF
18
18
18
18
18
ENDCHAR
STARTCHAR <unknown>
ENCODING 21
SWIDTH 42 0
DWIDTH 8 0
BBX 5 11 0 -3
BITMAP
18
18
18
18
F8
F8
18
18
18
18
18
ENDCHAR
STARTCHAR <unknown>
ENCODING 22
SWIDTH 42 0
DWIDTH 8 0
BBX 5 6 3 2
BITMAP
C0
C0
C0
C0
F8
F8
ENDCHAR
STARTCHAR <unknown>
ENCODING 23
SWIDTH 42 0
DWIDTH 8 0
BBX 8 6 0 2
BITMAP
18
18
18
18
FF
FF
ENDCHAR
STARTCHAR <unknown>
ENCODING 24
SWIDTH 42 0
DWIDTH 8 0
BBX 5 6 0 2
BITMAP
18
18
18
18
F8
F8
ENDCHAR
STARTCHAR <unknown>
ENCODING 25
SWIDTH 42 0
DWIDTH 8 0
BBX 2 11 3 -3
BITMAP
C0
C0
C0
C0
C0
C0
C0
C0
C0
C0
C0
ENDCHAR
STARTCHAR <unknown>
ENCODING 26
SWIDTH 42 0
DWIDTH 8 0
BBX 8 2 0 2
BITMAP
FF
FF
ENDCHAR
STARTCHAR <unknown>
ENCODING 27
SWIDTH 42 0
DWIDTH 8 0
BBX 0 0 8 8
BITMAP
ENDCHAR
STARTCHAR <unknown>
ENCODING 28
SWIDTH 42 0
DWIDTH 8 0
BBX 0 0 8 8
BITMAP
ENDCHAR
STARTCHAR <unknown>
ENCODING 29
SWIDTH 42 0
DWIDTH 8 0
BBX 0 0 8 8
BITMAP
ENDCHAR
STARTCHAR <unknown>
ENCODING 30
SWIDTH 42 0
DWIDTH 8 0
BBX 0 0 8 8
BITMAP
ENDCHAR
STARTCHAR <unknown>
ENCODING 31
SWIDTH 42 0
DWIDTH 8 0
BBX 0 0 8 8
BITMAP
ENDCHAR
STARTCHAR <unknown>
ENCODING 32
SWIDTH 42 0
DWIDTH 8 0
BBX 0 0 8 8
BITMAP
ENDCHAR
STARTCHAR <unknown>
ENCODING 33
SWIDTH 42 0
DWIDTH 8 0
BBX 1 7 4 0
BITMAP
80
80
80
80
00
80
80
ENDCHAR
STARTCHAR <unknown>
ENCODING 34
SWIDTH 42 0
DWIDTH 8 0
BBX 4 3 2 4
BITMAP
90
90
90
ENDCHAR
STARTCHAR <unknown>
ENCODING 35
SWIDTH 42 0
DWIDTH 8 0
BBX 6 7 1 0
BITMAP
48
48
FC
48
FC
48
48
ENDCHAR
STARTCHAR <unknown>
ENCODING 36
SWIDTH 42 0
DWIDTH 8 0
BBX 5 9 1 -1
BITMAP
20
70
A8
A0
70
28
A8
70
20
ENDCHAR
STARTCHAR <unknown>
ENCODING 37
SWIDTH 42 0
DWIDTH 8 0
BBX 7 7 0 0
BITMAP
C2
C4
08
10
20
46
86
ENDCHAR
STARTCHAR <unknown>
ENCODING 38
SWIDTH 42 0
DWIDTH 8 0
BBX 7 7 1 0
BITMAP
60
90
60
A4
94
8C
7A
ENDCHAR
STARTCHAR <unknown>
ENCODING 39
SWIDTH 42 0
DWIDTH 8 0
BBX 1 3 4 4
BITMAP
80
80
80
ENDCHAR
STARTCHAR <unknown>
ENCODING 40
SWIDTH 42 0
DWIDTH 8 0
BBX 3 7 3 0
BITMAP
20
40
80
80
80
40
20
ENDCHAR
STARTCHAR <unknown>
ENCODING 41
SWIDTH 42 0
DWIDTH 8 0
BBX 3 7 3 0
BITMAP
80
40
20
20
20
40
80
ENDCHAR
STARTCHAR <unknown>
ENCODING 42
SWIDTH 42 0
DWIDTH 8 0
BBX 5 5 2 1
BITMAP
20
A8
70
A8
20
ENDCHAR
STARTCHAR <unknown>
ENCODING 43
SWIDTH 42 0
DWIDTH 8 0
BBX 7 5 1 1
BITMAP
10
10
FE
10
10
ENDCHAR
STARTCHAR <unknown>
ENCODING 44
SWIDTH 42 0
DWIDTH 8 0
BBX 3 3 2 -1
BITMAP
60
40
80
ENDCHAR
STARTCHAR <unknown>
ENCODING 45
SWIDTH 42 0
DWIDTH 8 0
BBX 5 1 2 3
BITMAP
F8
ENDCHAR
STARTCHAR <unknown>
ENCODING 46
SWIDTH 42 0
DWIDTH 8 0
BBX 1 2 4 0
BITMAP
80
80
ENDCHAR
STARTCHAR <unknown>
ENCODING 47
SWIDTH 42 0
DWIDTH 8 0
BBX 7 7 1 0
BITMAP
02
04
08
10
20
40
80
ENDCHAR
STARTCHAR <unknown>
ENCODING 48
SWIDTH 42 0
DWIDTH 8 0
BBX 6 7 1 0
BITMAP
30
48
84
84
84
48
30
ENDCHAR
STARTCHAR <unknown>
ENCODING 49
SWIDTH 42 0
DWIDTH 8 0
BBX 5 7 2 0
BITMAP
20
60
A0
20
20
20
F8
ENDCHAR
STARTCHAR <unknown>
ENCODING 50
SWIDTH 42 0
DWIDTH 8 0
BBX 6 7 1 0
BITMAP
78
84
04
18
60
80
FC
ENDCHAR
STARTCHAR <unknown>
ENCODING 51
SWIDTH 42 0
DWIDTH 8 0
BBX 6 7 1 0
BITMAP
FC
08
10
38
04
84
78
ENDCHAR
STARTCHAR <unknown>
ENCODING 52
SWIDTH 42 0
DWIDTH 8 0
BBX 6 7 1 0
BITMAP
18
28
48
88
FC
08
08
ENDCHAR
STARTCHAR <unknown>
ENCODING 53
SWIDTH 42 0
DWIDTH 8 0
BBX 6 7 1 0
BITMAP
FC
80
B8
C4
04
C4
78
ENDCHAR
STARTCHAR <unknown>
ENCODING 54
SWIDTH 42 0
DWIDTH 8 0
BBX 6 7 1 0
BITMAP
78
84
80
F8
84
84
78
ENDCHAR
STARTCHAR <unknown>
ENCODING 55
SWIDTH 42 0
DWIDTH 8 0
BBX 6 7 1 0
BITMAP
FC
04
08
10
20
20
20
ENDCHAR
STARTCHAR <unknown>
ENCODING 56
SWIDTH 42 0
DWIDTH 8 0
BBX 6 7 1 0
BITMAP
78
84
84
78
84
84
78
ENDCHAR
STARTCHAR <unknown>
ENCODING 57
SWIDTH 42 0
DWIDTH 8 0
BBX 6 7 1 0
BITMAP
78
84
84
7C
04
84
78
ENDCHAR
STARTCHAR <unknown>
ENCODING 58
SWIDTH 42 0
DWIDTH 8 0
BBX 2 5 3 1
BITMAP
C0
C0
00
C0
C0
ENDCHAR
STARTCHAR <unknown>
ENCODING 59
SWIDTH 42 0
DWIDTH 8 0
BBX 3 6 2 -1
BITMAP
60
60
00
60
40
80
ENDCHAR
STARTCHAR <unknown>
ENCODING 60
SWIDTH 42 0
DWIDTH 8 0
BBX 6 5 1 1
BITMAP
0C
30
C0
30
0C
ENDCHAR
STARTCHAR <unknown>
ENCODING 61
SWIDTH 42 0
DWIDTH 8 0
BBX 7 3 1 2
BITMAP
FE
00
FE
ENDCHAR
STARTCHAR <unknown>
ENCODING 62
SWIDTH 42 0
DWIDTH 8 0
BBX 6 5 1 1
BITMAP
C0
30
0C
30
C0
ENDCHAR
STARTCHAR <unknown>
ENCODING 63
SWIDTH 42 0
DWIDTH 8 0
BBX 5 7 2 0
BITMAP
70
88
10
20
20
00
20
ENDCHAR
STARTCHAR <unknown>
ENCODING 64
SWIDTH 42 0
DWIDTH 8 0
BBX 6 7 1 0
BITMAP
78
84
BC
A4
BC
80
7C
ENDCHAR
STARTCHAR <unknown>
ENCODING 65
SWIDTH 42 0
DWIDTH 8 0
BBX 6 7 1 0
BITMAP
30
48
84
84
FC
84
84
ENDCHAR
STARTCHAR <unknown>
ENCODING 66
SWIDTH 42 0
DWIDTH 8 0
BBX 6 7 1 0
BITMAP
F8
44
44
78
44
44
F8
ENDCHAR
STARTCHAR <unknown>
ENCODING 67
SWIDTH 42 0
DWIDTH 8 0
BBX 6 7 1 0
BITMAP
38
44
80
80
80
44
38
ENDCHAR
STARTCHAR <unknown>
ENCODING 68
SWIDTH 42 0
DWIDTH 8 0
BBX 6 7 1 0
BITMAP
F0
48
44
44
44
48
F0
ENDCHAR
STARTCHAR <unknown>
ENCODING 69
SWIDTH 42 0
DWIDTH 8 0
BBX 6 7 1 0
BITMAP
FC
80
80
F0
80
80
FC
ENDCHAR
STARTCHAR <unknown>
ENCODING 70
SWIDTH 42 0
DWIDTH 8 0
BBX 6 7 1 0
BITMAP
FC
80
80
F0
80
80
80
ENDCHAR
STARTCHAR <unknown>
ENCODING 71
SWIDTH 42 0
DWIDTH 8 0
BBX 6 7 1 0
BITMAP
38
44
80
80
9C
44
38
ENDCHAR
STARTCHAR <unknown>
ENCODING 72
SWIDTH 42 0
DWIDTH 8 0
BBX 6 7 1 0
BITMAP
84
84
84
FC
84
84
84
ENDCHAR
STARTCHAR <unknown>
ENCODING 73
SWIDTH 42 0
DWIDTH 8 0
BBX 3 7 3 0
BITMAP
E0
40
40
40
40
40
E0
ENDCHAR
STARTCHAR <unknown>
ENCODING 74
SWIDTH 42 0
DWIDTH 8 0
BBX 6 7 1 0
BITMAP
1C
08
08
08
08
88
70
ENDCHAR
STARTCHAR <unknown>
ENCODING 75
SWIDTH 42 0
DWIDTH 8 0
BBX 6 7 1 0
BITMAP
88
90
A0
E0
90
88
84
ENDCHAR
STARTCHAR <unknown>
ENCODING 76
SWIDTH 42 0
DWIDTH 8 0
BBX 5 7 1 0
BITMAP
80
80
80
80
80
80
F8
ENDCHAR
STARTCHAR <unknown>
ENCODING 77
SWIDTH 42 0
DWIDTH 8 0
BBX 6 7 1 0
BITMAP
84
CC
B4
84
84
84
84
ENDCHAR
STARTCHAR <unknown>
ENCODING 78
SWIDTH 42 0
DWIDTH 8 0
BBX 6 7 1 0
BITMAP
84
C4
A4
94
8C
84
84
ENDCHAR
STARTCHAR <unknown>
ENCODING 79
SWIDTH 42 0
DWIDTH 8 0
BBX 6 7 1 0
BITMAP
78
84
84
84
84
84
78
ENDCHAR
STARTCHAR <unknown>
ENCODING 80
SWIDTH 42 0
DWIDTH 8 0
BBX 6 7 1 0
BITMAP
F8
84
84
F8
80
80
80
ENDCHAR
STARTCHAR <unknown>
ENCODING 81
SWIDTH 42 0
DWIDTH 8 0
BBX 6 7 1 0
BITMAP
78
84
84
84
94
88
64
ENDCHAR
STARTCHAR <unknown>
ENCODING 82
SWIDTH 42 0
DWIDTH 8 0
BBX 6 7 1 0
BITMAP
F8
84
84
F8
90
88
84
ENDCHAR
STARTCHAR <unknown>
ENCODING 83
SWIDTH 42 0
DWIDTH 8 0
BBX 6 7 1 0
BITMAP
78
84
80
78
04
84
78
ENDCHAR
STARTCHAR <unknown>
ENCODING 84
SWIDTH 42 0
DWIDTH 8 0
BBX 5 7 2 0
BITMAP
F8
20
20
20
20
20
20
ENDCHAR
STARTCHAR <unknown>
ENCODING 85
SWIDTH 42 0
DWIDTH 8 0
BBX 6 7 1 0
BITMAP
84
84
84
84
84
84
78
ENDCHAR
STARTCHAR <unknown>
ENCODING 86
SWIDTH 42 0
DWIDTH 8 0
BBX 5 7 2 0
BITMAP
88
88
88
88
50
50
20
ENDCHAR
STARTCHAR <unknown>
ENCODING 87
SWIDTH 42 0
DWIDTH 8 0
BBX 6 7 1 0
BITMAP
84
84
84
84
B4
CC
84
ENDCHAR
STARTCHAR <unknown>
ENCODING 88
SWIDTH 42 0
DWIDTH 8 0
BBX 6 7 1 0
BITMAP
84
84
48
30
48
84
84
ENDCHAR
STARTCHAR <unknown>
ENCODING 89
SWIDTH 42 0
DWIDTH 8 0
BBX 5 7 1 0
BITMAP
88
88
50
20
20
20
20
ENDCHAR
STARTCHAR <unknown>
ENCODING 90
SWIDTH 42 0
DWIDTH 8 0
BBX 5 7 1 0
BITMAP
F8
08
10
20
40
80
F8
ENDCHAR
STARTCHAR <unknown>
ENCODING 91
SWIDTH 42 0
DWIDTH 8 0
BBX 4 9 3 -1
BITMAP
F0
80
80
80
80
80
80
80
F0
ENDCHAR
STARTCHAR <unknown>
ENCODING 92
SWIDTH 42 0
DWIDTH 8 0
BBX 7 7 1 0
BITMAP
80
40
20
10
08
04
02
ENDCHAR
STARTCHAR <unknown>
ENCODING 93
SWIDTH 42 0
DWIDTH 8 0
BBX 4 9 2 -1
BITMAP
F0
10
10
10
10
10
10
10
F0
ENDCHAR
STARTCHAR <unknown>
ENCODING 94
SWIDTH 42 0
DWIDTH 8 0
BBX 7 4 1 1
BITMAP
10
38
6C
C6
ENDCHAR
STARTCHAR <unknown>
ENCODING 95
SWIDTH 42 0
DWIDTH 8 0
BBX 8 1 0 -2
BITMAP
FF
ENDCHAR
STARTCHAR <unknown>
ENCODING 96
SWIDTH 42 0
DWIDTH 8 0
BBX 4 4 2 4
BITMAP
80
40
20
10
ENDCHAR
STARTCHAR <unknown>
ENCODING 97
SWIDTH 42 0
DWIDTH 8 0
BBX 5 6 1 0
BITMAP
60
90
70
90
90
68
ENDCHAR
STARTCHAR <unknown>
ENCODING 98
SWIDTH 42 0
DWIDTH 8 0
BBX 5 8 1 0
BITMAP
80
80
B0
C8
88
88
C8
B0
ENDCHAR
STARTCHAR <unknown>
ENCODING 99
SWIDTH 42 0
DWIDTH 8 0
BBX 5 6 1 0
BITMAP
70
88
80
80
88
70
ENDCHAR
STARTCHAR <unknown>
ENCODING 100
SWIDTH 42 0
DWIDTH 8 0
BBX 5 8 1 0
BITMAP
08
08
68
98
88
88
98
68
ENDCHAR
STARTCHAR <unknown>
ENCODING 101
SWIDTH 42 0
DWIDTH 8 0
BBX 5 6 1 0
BITMAP
70
88
F0
80
88
70
ENDCHAR
STARTCHAR <unknown>
ENCODING 102
SWIDTH 42 0
DWIDTH 8 0
BBX 5 8 1 0
BITMAP
38
40
F0
40
40
40
40
40
ENDCHAR
STARTCHAR <unknown>
ENCODING 103
SWIDTH 42 0
DWIDTH 8 0
BBX 5 8 1 -2
BITMAP
68
98
88
88
98
68
08
70
ENDCHAR
STARTCHAR <unknown>
ENCODING 104
SWIDTH 42 0
DWIDTH 8 0
BBX 5 8 1 0
BITMAP
80
80
B0
C8
88
88
88
88
ENDCHAR
STARTCHAR <unknown>
ENCODING 105
SWIDTH 42 0
DWIDTH 8 0
BBX 3 8 1 0
BITMAP
20
00
E0
20
20
20
20
20
ENDCHAR
STARTCHAR <unknown>
ENCODING 106
SWIDTH 42 0
DWIDTH 8 0
BBX 4 10 1 -2
BITMAP
10
10
00
70
10
10
10
10
90
60
ENDCHAR
STARTCHAR <unknown>
ENCODING 107
SWIDTH 42 0
DWIDTH 8 0
BBX 5 8 1 0
BITMAP
80
80
90
A0
C0
A0
90
88
ENDCHAR
STARTCHAR <unknown>
ENCODING 108
SWIDTH 42 0
DWIDTH 8 0
BBX 3 8 2 0
BITMAP
E0
20
20
20
20
20
20
20
ENDCHAR
STARTCHAR <unknown>
ENCODING 109
SWIDTH 42 0
DWIDTH 8 0
BBX 5 6 1 0
BITMAP
D8
A8
A8
A8
A8
A8
ENDCHAR
STARTCHAR <unknown>
ENCODING 110
SWIDTH 42 0
DWIDTH 8 0
BBX 5 6 1 0
BITMAP
B0
C8
88
88
88
88
ENDCHAR
STARTCHAR <unknown>
ENCODING 111
SWIDTH 42 0
DWIDTH 8 0
BBX 5 6 1 0
BITMAP
70
88
88
88
88
70
ENDCHAR
STARTCHAR <unknown>
ENCODING 112
SWIDTH 42 0
DWIDTH 8 0
BBX 5 8 1 -2
BITMAP
B0
C8
88
88
C8
B0
80
80
ENDCHAR
STARTCHAR <unknown>
ENCODING 113
SWIDTH 42 0
DWIDTH 8 0
BBX 5 8 1 -2
BITMAP
68
98
88
88
98
68
08
08
ENDCHAR
STARTCHAR <unknown>
ENCODING 114
SWIDTH 42 0
DWIDTH 8 0
BBX 5 6 1 0
BITMAP
B0
C8
80
80
80
80
ENDCHAR
STARTCHAR <unknown>
ENCODING 115
SWIDTH 42 0
DWIDTH 8 0
BBX 5 6 1 0
BITMAP
70
88
60
10
88
70
ENDCHAR
STARTCHAR <unknown>
ENCODING 116
SWIDTH 42 0
DWIDTH 8 0
BBX 5 7 1 0
BITMAP
40
F0
40
40
40
48
30
ENDCHAR
STARTCHAR <unknown>
ENCODING 117
SWIDTH 42 0
DWIDTH 8 0
BBX 5 6 1 0
BITMAP
88
88
88
88
98
68
ENDCHAR
STARTCHAR <unknown>
ENCODING 118
SWIDTH 42 0
DWIDTH 8 0
BBX 5 6 1 0
BITMAP
88
88
50
50
20
20
ENDCHAR
STARTCHAR <unknown>
ENCODING 119
SWIDTH 42 0
DWIDTH 8 0
BBX 5 6 1 0
BITMAP
88
88
A8
A8
A8
50
ENDCHAR
STARTCHAR <unknown>
ENCODING 120
SWIDTH 42 0
DWIDTH 8 0
BBX 5 6 1 0
BITMAP
88
50
20
50
88
88
ENDCHAR
STARTCHAR <unknown>
ENCODING 121
SWIDTH 42 0
DWIDTH 8 0
BBX 5 8 1 -2
BITMAP
88
88
88
88
98
68
08
70
ENDCHAR
STARTCHAR <unknown>
ENCODING 122
SWIDTH 42 0
DWIDTH 8 0
BBX 4 6 1 0
BITMAP
F0
10
20
40
80
F0
ENDCHAR
STARTCHAR <unknown>
ENCODING 123
SWIDTH 42 0
DWIDTH 8 0
BBX 4 9 2 -1
BITMAP
30
40
40
40
C0
40
40
40
30
ENDCHAR
STARTCHAR <unknown>
ENCODING 124
SWIDTH 42 0
DWIDTH 8 0
BBX 1 7 4 0
BITMAP
80
80
80
00
80
80
80
ENDCHAR
STARTCHAR <unknown>
ENCODING 125
SWIDTH 42 0
DWIDTH 8 0
BBX 4 9 2 -1
BITMAP
C0
20
20
20
30
20
20
20
C0
ENDCHAR
STARTCHAR <unknown>
ENCODING 126
SWIDTH 42 0
DWIDTH 8 0
BBX 7 3 1 2
BITMAP
62
92
8C
ENDCHAR
STARTCHAR <unknown>
ENCODING 127
SWIDTH 42 0
DWIDTH 8 0
BBX 0 0 8 8
BITMAP
ENDCHAR
STARTCHAR <unknown>
ENCODING 128
SWIDTH 42 0
DWIDTH 8 0
BBX 0 0 8 8
BITMAP
ENDCHAR
STARTCHAR <unknown>
ENCODING 129
SWIDTH 42 0
DWIDTH 8 0
BBX 0 0 8 8
BITMAP
ENDCHAR
STARTCHAR <unknown>
ENCODING 130
SWIDTH 42 0
DWIDTH 8 0
BBX 0 0 8 8
BITMAP
ENDCHAR
STARTCHAR <unknown>
ENCODING 131
SWIDTH 42 0
DWIDTH 8 0
BBX 0 0 8 8
BITMAP
ENDCHAR
STARTCHAR <unknown>
ENCODING 132
SWIDTH 42 0
DWIDTH 8 0
BBX 0 0 8 8
BITMAP
ENDCHAR
STARTCHAR <unknown>
ENCODING 133
SWIDTH 42 0
DWIDTH 8 0
BBX 0 0 8 8
BITMAP
ENDCHAR
STARTCHAR <unknown>
ENCODING 134
SWIDTH 42 0
DWIDTH 8 0
BBX 0 0 8 8
BITMAP
ENDCHAR
STARTCHAR <unknown>
ENCODING 135
SWIDTH 42 0
DWIDTH 8 0
BBX 0 0 8 8
BITMAP
ENDCHAR
STARTCHAR <unknown>
ENCODING 136
SWIDTH 42 0
DWIDTH 8 0
BBX 0 0 8 8
BITMAP
ENDCHAR
STARTCHAR <unknown>
ENCODING 137
SWIDTH 42 0
DWIDTH 8 0
BBX 0 0 8 8
BITMAP
ENDCHAR
STARTCHAR <unknown>
ENCODING 138
SWIDTH 42 0
DWIDTH 8 0
BBX 0 0 8 8
BITMAP
ENDCHAR
STARTCHAR <unknown>
ENCODING 139
SWIDTH 42 0
DWIDTH 8 0
BBX 0 0 8 8
BITMAP
ENDCHAR
STARTCHAR <unknown>
ENCODING 140
SWIDTH 42 0
DWIDTH 8 0
BBX 0 0 8 8
BITMAP
ENDCHAR
STARTCHAR <unknown>
ENCODING 141
SWIDTH 42 0
DWIDTH 8 0
BBX 0 0 8 8
BITMAP
ENDCHAR
STARTCHAR <unknown>
ENCODING 142
SWIDTH 42 0
DWIDTH 8 0
BBX 0 0 8 8
BITMAP
ENDCHAR
STARTCHAR <unknown>
ENCODING 143
SWIDTH 42 0
DWIDTH 8 0
BBX 0 0 8 8
BITMAP
ENDCHAR
STARTCHAR <unknown>
ENCODING 144
SWIDTH 42 0
DWIDTH 8 0
BBX 5 7 3 -3
BITMAP
F8
80
80
80
80
80
80
ENDCHAR
STARTCHAR <unknown>
ENCODING 145
SWIDTH 42 0
DWIDTH 8 0
BBX 8 7 0 -3
BITMAP
FF
10
10
10
10
10
10
ENDCHAR
STARTCHAR <unknown>
ENCODING 146
SWIDTH 42 0
DWIDTH 8 0
BBX 4 7 0 -3
BITMAP
F0
10
10
10
10
10
10
ENDCHAR
STARTCHAR <unknown>
ENCODING 147
SWIDTH 42 0
DWIDTH 8 0
BBX 5 11 3 -3
BITMAP
80
80
80
80
F8
80
80
80
80
80
80
ENDCHAR
STARTCHAR <unknown>
ENCODING 148
SWIDTH 42 0
DWIDTH 8 0
BBX 8 11 0 -3
BITMAP
10
10
10
10
FF
10
10
10
10
10
10
ENDCHAR
STARTCHAR <unknown>
ENCODING 149
SWIDTH 42 0
DWIDTH 8 0
BBX 4 11 0 -3
BITMAP
10
10
10
10
F0
10
10
10
10
10
10
ENDCHAR
STARTCHAR <unknown>
ENCODING 150
SWIDTH 42 0
DWIDTH 8 0
BBX 5 5 3 3
BITMAP
80
80
80
80
F8
ENDCHAR
STARTCHAR <unknown>
ENCODING 151
SWIDTH 42 0
DWIDTH 8 0
BBX 8 5 0 3
BITMAP
10
10
10
10
FF
ENDCHAR
STARTCHAR <unknown>
ENCODING 152
SWIDTH 42 0
DWIDTH 8 0
BBX 4 5 0 3
BITMAP
10
10
10
10
F0
ENDCHAR
STARTCHAR <unknown>
ENCODING 153
SWIDTH 42 0
DWIDTH 8 0
BBX 1 11 3 -3
BITMAP
80
80
80
80
80
80
80
80
80
80
80
ENDCHAR
STARTCHAR <unknown>
ENCODING 154
SWIDTH 42 0
DWIDTH 8 0
BBX 8 1 0 3
BITMAP
FF
ENDCHAR
STARTCHAR <unknown>
ENCODING 155
SWIDTH 42 0
DWIDTH 8 0
BBX 0 0 8 8
BITMAP
ENDCHAR
STARTCHAR <unknown>
ENCODING 156
SWIDTH 42 0
DWIDTH 8 0
BBX 0 0 8 8
BITMAP
ENDCHAR
STARTCHAR <unknown>
ENCODING 157
SWIDTH 42 0
DWIDTH 8 0
BBX 0 0 8 8
BITMAP
ENDCHAR
STARTCHAR <unknown>
ENCODING 158
SWIDTH 42 0
DWIDTH 8 0
BBX 0 0 8 8
BITMAP
ENDCHAR
STARTCHAR <unknown>
ENCODING 159
SWIDTH 42 0
DWIDTH 8 0
BBX 0 0 8 8
BITMAP
ENDCHAR
STARTCHAR <unknown>
ENCODING 160
SWIDTH 42 0
DWIDTH 8 0
BBX 8 11 0 -3
BITMAP
3C
24
24
24
24
3C
42
A6
A2
A2
47
ENDCHAR
STARTCHAR <unknown>
ENCODING 161
SWIDTH 42 0
DWIDTH 8 0
BBX 6 2 2 6
BITMAP
CC
CC
ENDCHAR
STARTCHAR <unknown>
ENCODING 162
SWIDTH 42 0
DWIDTH 8 0
BBX 5 1 2 7
BITMAP
F8
ENDCHAR
STARTCHAR <unknown>
ENCODING 163
SWIDTH 42 0
DWIDTH 8 0
BBX 8 11 0 -3
BITMAP
3C
24
24
24
24
3C
42
A5
A1
A2
47
ENDCHAR
STARTCHAR <unknown>
ENCODING 164
SWIDTH 42 0
DWIDTH 8 0
BBX 6 7 1 -1
BITMAP
0C
30
C0
30
0C
00
FC
ENDCHAR
STARTCHAR <unknown>
ENCODING 165
SWIDTH 42 0
DWIDTH 8 0
BBX 8 11 0 -3
BITMAP
3C
24
24
24
24
3C
46
A1
A2
A1
46
ENDCHAR
STARTCHAR <unknown>
ENCODING 166
SWIDTH 42 0
DWIDTH 8 0
BBX 6 7 1 -1
BITMAP
C0
30
0C
30
C0
00
FC
ENDCHAR
STARTCHAR <unknown>
ENCODING 167
SWIDTH 42 0
DWIDTH 8 0
BBX 8 11 0 -3
BITMAP
3C
24
24
24
24
3C
42
AA
AF
A2
42
ENDCHAR
STARTCHAR <unknown>
ENCODING 168
SWIDTH 42 0
DWIDTH 8 0
BBX 7 7 1 0
BITMAP
06
0C
FE
18
FE
60
C0
ENDCHAR
STARTCHAR <unknown>
ENCODING 169
SWIDTH 42 0
DWIDTH 8 0
BBX 7 4 1 1
BITMAP
C6
6C
38
10
ENDCHAR
STARTCHAR <unknown>
ENCODING 170
SWIDTH 42 0
DWIDTH 8 0
BBX 8 11 0 -3
BITMAP
3C
24
24
24
24
3C
47
A4
A6
A1
46
ENDCHAR
STARTCHAR <unknown>
ENCODING 171
SWIDTH 42 0
DWIDTH 8 0
BBX 7 5 1 1
BITMAP
C6
6C
38
6C
C6
ENDCHAR
STARTCHAR <unknown>
ENCODING 172
SWIDTH 42 0
DWIDTH 8 0
BBX 4 5 2 -1
BITMAP
F0
00
60
20
40
ENDCHAR
STARTCHAR <unknown>
ENCODING 173
SWIDTH 42 0
DWIDTH 8 0
BBX 7 9 1 -1
BITMAP
FE
82
92
82
FE
82
92
82
FE
ENDCHAR
STARTCHAR <unknown>
ENCODING 174
SWIDTH 42 0
DWIDTH 8 0
BBX 6 6 2 2
BITMAP
CC
CC
00
00
30
30
ENDCHAR
STARTCHAR <unknown>
ENCODING 175
SWIDTH 42 0
DWIDTH 8 0
BBX 7 7 1 0
BITMAP
02
04
08
FE
20
40
80
ENDCHAR
STARTCHAR <unknown>
ENCODING 176
SWIDTH 42 0
DWIDTH 8 0
BBX 7 8 1 0
BITMAP
62
92
8C
00
10
38
6C
C6
ENDCHAR
STARTCHAR <unknown>
ENCODING 177
SWIDTH 42 0
DWIDTH 8 0
BBX 1 9 3 -2
BITMAP
80
00
80
80
80
80
80
80
80
ENDCHAR
STARTCHAR <unknown>
ENCODING 178
SWIDTH 42 0
DWIDTH 8 0
BBX 8 11 0 -3
BITMAP
3C
24
24
24
24
3C
43
A4
A6
A5
42
ENDCHAR
STARTCHAR <unknown>
ENCODING 179
SWIDTH 42 0
DWIDTH 8 0
BBX 7 7 0 0
BITMAP
38
40
40
70
40
40
FE
ENDCHAR
STARTCHAR <unknown>
ENCODING 180
SWIDTH 42 0
DWIDTH 8 0
BBX 5 7 1 0
BITMAP
88
88
50
F8
20
F8
20
ENDCHAR
STARTCHAR <unknown>
ENCODING 181
SWIDTH 42 0
DWIDTH 8 0
BBX 8 11 0 -3
BITMAP
3C
24
24
24
24
3C
47
A1
A2
A4
44
ENDCHAR
STARTCHAR <unknown>
ENCODING 182
SWIDTH 42 0
DWIDTH 8 0
BBX 5 3 2 1
BITMAP
F8
08
08
ENDCHAR
STARTCHAR <unknown>
ENCODING 183
SWIDTH 42 0
DWIDTH 8 0
BBX 8 11 0 -3
BITMAP
3C
24
24
24
24
3C
42
A5
A2
A5
42
ENDCHAR
STARTCHAR <unknown>
ENCODING 184
SWIDTH 42 0
DWIDTH 8 0
BBX 8 11 0 -3
BITMAP
3C
24
24
24
24
3C
42
A5
A7
A1
46
ENDCHAR
STARTCHAR <unknown>
ENCODING 185
SWIDTH 42 0
DWIDTH 8 0
BBX 7 8 1 0
BITMAP
62
92
8C
00
C6
6C
38
10
ENDCHAR
STARTCHAR <unknown>
ENCODING 186
SWIDTH 42 0
DWIDTH 8 0
BBX 8 11 0 -3
BITMAP
3C
24
24
24
24
3C
42
C5
45
45
E2
ENDCHAR
STARTCHAR <unknown>
ENCODING 187
SWIDTH 42 0
DWIDTH 8 0
BBX 7 7 1 0
BITMAP
FE
82
BA
AA
BA
82
FE
ENDCHAR
STARTCHAR <unknown>
ENCODING 188
SWIDTH 42 0
DWIDTH 8 0
BBX 7 7 1 0
BITMAP
FE
C2
A2
92
8A
86
FE
ENDCHAR
STARTCHAR <unknown>
ENCODING 189
SWIDTH 42 0
DWIDTH 8 0
BBX 7 5 1 1
BITMAP
FE
00
FE
00
FE
ENDCHAR
STARTCHAR <unknown>
ENCODING 190
SWIDTH 42 0
DWIDTH 8 0
BBX 4 7 2 0
BITMAP
F0
90
90
90
90
90
F0
ENDCHAR
STARTCHAR <unknown>
ENCODING 191
SWIDTH 42 0
DWIDTH 8 0
BBX 5 8 1 -1
BITMAP
20
00
20
40
80
80
88
70
ENDCHAR
STARTCHAR <unknown>
ENCODING 192
SWIDTH 42 0
DWIDTH 8 0
BBX 8 11 0 -3
BITMAP
3C
24
24
24
24
3C
42
C6
42
42
E7
ENDCHAR
STARTCHAR <unknown>
ENCODING 193
SWIDTH 42 0
DWIDTH 8 0
BBX 6 6 1 0
BITMAP
74
88
88
88
88
74
ENDCHAR
STARTCHAR <unknown>
ENCODING 194
SWIDTH 42 0
DWIDTH 8 0
BBX 7 5 1 1
BITMAP
10
10
10
10
FE
ENDCHAR
STARTCHAR <unknown>
ENCODING 195
SWIDTH 42 0
DWIDTH 8 0
BBX 6 6 1 0
BITMAP
78
84
84
84
84
84
ENDCHAR
STARTCHAR <unknown>
ENCODING 196
SWIDTH 42 0
DWIDTH 8 0
BBX 4 7 2 0
BITMAP
80
80
80
80
80
80
F0
ENDCHAR
STARTCHAR <unknown>
ENCODING 197
SWIDTH 42 0
DWIDTH 8 0
BBX 5 5 2 1
BITMAP
78
80
F8
80
78
ENDCHAR
STARTCHAR <unknown>
ENCODING 198
SWIDTH 42 0
DWIDTH 8 0
BBX 8 11 0 -3
BITMAP
3C
24
24
24
24
3C
42
C5
41
42
E7
ENDCHAR
STARTCHAR <unknown>
ENCODING 199
SWIDTH 42 0
DWIDTH 8 0
BBX 7 6 1 1
BITMAP
FE
44
44
28
28
10
ENDCHAR
STARTCHAR <unknown>
ENCODING 200
SWIDTH 42 0
DWIDTH 8 0
BBX 7 6 1 0
BITMAP
10
28
28
44
44
FE
ENDCHAR
STARTCHAR <unknown>
ENCODING 201
SWIDTH 42 0
DWIDTH 8 0
BBX 3 6 2 0
BITMAP
C0
40
40
40
40
60
ENDCHAR
STARTCHAR <unknown>
ENCODING 202
SWIDTH 42 0
DWIDTH 8 0
BBX 4 3 3 2
BITMAP
60
90
60
ENDCHAR
STARTCHAR <unknown>
ENCODING 203
SWIDTH 42 0
DWIDTH 8 0
BBX 8 11 0 -3
BITMAP
3C
24
24
24
24
3C
46
C1
42
41
E6
ENDCHAR
STARTCHAR <unknown>
ENCODING 204
SWIDTH 42 0
DWIDTH 8 0
BBX 7 7 1 0
BITMAP
FE
82
82
82
82
82
FE
ENDCHAR
STARTCHAR <unknown>
ENCODING 205
SWIDTH 42 0
DWIDTH 8 0
BBX 1 7 4 0
BITMAP
80
80
80
80
80
80
80
ENDCHAR
STARTCHAR <unknown>
ENCODING 206
SWIDTH 42 0
DWIDTH 8 0
BBX 7 5 1 1
BITMAP
FE
10
10
10
10
ENDCHAR
STARTCHAR <unknown>
ENCODING 207
SWIDTH 42 0
DWIDTH 8 0
BBX 6 5 2 1
BITMAP
78
84
84
84
78
ENDCHAR
STARTCHAR <unknown>
ENCODING 208
SWIDTH 42 0
DWIDTH 8 0
BBX 8 11 0 -3
BITMAP
3C
24
24
24
24
3C
42
CA
4F
42
E2
ENDCHAR
STARTCHAR <unknown>
ENCODING 209
SWIDTH 42 0
DWIDTH 8 0
BBX 8 11 0 -3
BITMAP
3C
24
24
24
24
3C
47
C4
46
41
E6
ENDCHAR
STARTCHAR <unknown>
ENCODING 210
SWIDTH 42 0
DWIDTH 8 0
BBX 6 7 1 -1
BITMAP
38
44
44
78
40
40
80
ENDCHAR
STARTCHAR <unknown>
ENCODING 211
SWIDTH 42 0
DWIDTH 8 0
BBX 4 7 2 0
BITMAP
F0
80
80
80
80
80
80
ENDCHAR
STARTCHAR <unknown>
ENCODING 212
SWIDTH 42 0
DWIDTH 8 0
BBX 8 11 0 -3
BITMAP
3C
24
24
24
24
3C
43
C4
46
45
E2
ENDCHAR
STARTCHAR <unknown>
ENCODING 213
SWIDTH 42 0
DWIDTH 8 0
BBX 5 7 2 0
BITMAP
20
20
20
20
A8
70
20
ENDCHAR
STARTCHAR <unknown>
ENCODING 214
SWIDTH 42 0
DWIDTH 8 0
BBX 6 5 1 1
BITMAP
84
84
84
84
78
ENDCHAR
STARTCHAR <unknown>
ENCODING 215
SWIDTH 42 0
DWIDTH 8 0
BBX 7 5 1 1
BITMAP
44
82
92
92
6C
ENDCHAR
STARTCHAR <unknown>
ENCODING 216
SWIDTH 42 0
DWIDTH 8 0
BBX 6 5 1 1
BITMAP
F8
04
04
04
F8
ENDCHAR
STARTCHAR <unknown>
ENCODING 217
SWIDTH 42 0
DWIDTH 8 0
BBX 5 7 2 0
BITMAP
20
70
A8
20
20
20
20
ENDCHAR
STARTCHAR <unknown>
ENCODING 218
SWIDTH 42 0
DWIDTH 8 0
BBX 6 5 1 1
BITMAP
7C
80
80
80
7C
ENDCHAR
STARTCHAR <unknown>
ENCODING 219
SWIDTH 42 0
DWIDTH 8 0
BBX 5 5 1 2
BITMAP
80
80
F8
80
80
ENDCHAR
STARTCHAR <unknown>
ENCODING 220
SWIDTH 42 0
DWIDTH 8 0
BBX 7 7 1 0
BITMAP
80
40
20
FE
08
04
02
ENDCHAR
STARTCHAR <unknown>
ENCODING 221
SWIDTH 42 0
DWIDTH 8 0
BBX 6 5 1 2
BITMAP
04
04
FC
04
04
ENDCHAR
STARTCHAR <unknown>
ENCODING 222
SWIDTH 42 0
DWIDTH 8 0
BBX 8 11 0 -3
BITMAP
3C
24
24
24
24
3C
47
C1
42
44
E4
ENDCHAR
STARTCHAR <unknown>
ENCODING 223
SWIDTH 42 0
DWIDTH 8 0
BBX 6 5 1 1
BITMAP
30
00
FC
00
30
ENDCHAR
STARTCHAR <unknown>
ENCODING 224
SWIDTH 42 0
DWIDTH 8 0
BBX 7 7 1 0
BITMAP
FE
10
10
10
10
10
FE
ENDCHAR
STARTCHAR <unknown>
ENCODING 225
SWIDTH 42 0
DWIDTH 8 0
BBX 7 7 1 0
BITMAP
38
44
44
FE
44
44
38
ENDCHAR
STARTCHAR <unknown>
ENCODING 226
SWIDTH 42 0
DWIDTH 8 0
BBX 5 9 2 -1
BITMAP
20
20
70
A8
A8
A8
70
20
F8
ENDCHAR
STARTCHAR <unknown>
ENCODING 227
SWIDTH 42 0
DWIDTH 8 0
BBX 5 6 2 0
BITMAP
70
88
88
F8
88
88
ENDCHAR
STARTCHAR <unknown>
ENCODING 228
SWIDTH 42 0
DWIDTH 8 0
BBX 8 11 0 -3
BITMAP
3C
24
24
24
24
3C
42
C5
42
45
E2
ENDCHAR
STARTCHAR <unknown>
ENCODING 229
SWIDTH 42 0
DWIDTH 8 0
BBX 5 7 2 -1
BITMAP
78
80
F8
80
78
00
F8
ENDCHAR
STARTCHAR <unknown>
ENCODING 230
SWIDTH 42 0
DWIDTH 8 0
BBX 7 9 1 -1
BITMAP
62
92
8C
00
FE
82
44
28
10
ENDCHAR
STARTCHAR <unknown>
ENCODING 231
SWIDTH 42 0
DWIDTH 8 0
BBX 7 9 1 -1
BITMAP
10
FE
92
54
54
38
38
10
10
ENDCHAR
STARTCHAR <unknown>
ENCODING 232
SWIDTH 42 0
DWIDTH 8 0
BBX 7 9 1 -1
BITMAP
10
10
38
38
54
54
92
FE
10
ENDCHAR
STARTCHAR <unknown>
ENCODING 233
SWIDTH 42 0
DWIDTH 8 0
BBX 6 8 1 -2
BITMAP
60
20
20
20
20
30
00
FC
ENDCHAR
STARTCHAR <unknown>
ENCODING 234
SWIDTH 42 0
DWIDTH 8 0
BBX 4 6 2 2
BITMAP
90
00
60
90
90
60
ENDCHAR
STARTCHAR <unknown>
ENCODING 235
SWIDTH 42 0
DWIDTH 8 0
BBX 8 11 0 -3
BITMAP
3C
24
24
24
24
3C
42
C5
47
41
E6
ENDCHAR
STARTCHAR <unknown>
ENCODING 236
SWIDTH 42 0
DWIDTH 8 0
BBX 7 7 1 0
BITMAP
FE
92
92
92
82
82
FE
ENDCHAR
STARTCHAR <unknown>
ENCODING 237
SWIDTH 42 0
DWIDTH 8 0
BBX 8 11 0 -3
BITMAP
3C
24
24
24
24
3C
42
A5
25
45
E2
ENDCHAR
STARTCHAR <unknown>
ENCODING 238
SWIDTH 42 0
DWIDTH 8 0
BBX 5 9 2 -2
BITMAP
F8
20
70
A8
A8
A8
70
20
20
ENDCHAR
STARTCHAR <unknown>
ENCODING 239
SWIDTH 42 0
DWIDTH 8 0
BBX 6 7 1 1
BITMAP
84
00
78
84
84
84
78
ENDCHAR
STARTCHAR <unknown>
ENCODING 240
SWIDTH 42 0
DWIDTH 8 0
BBX 7 7 1 0
BITMAP
38
54
AA
92
AA
44
38
ENDCHAR
STARTCHAR <unknown>
ENCODING 241
SWIDTH 42 0
DWIDTH 8 0
BBX 0 0 8 8
BITMAP
ENDCHAR
STARTCHAR <unknown>
ENCODING 242
SWIDTH 42 0
DWIDTH 8 0
BBX 0 0 8 8
BITMAP
ENDCHAR
STARTCHAR <unknown>
ENCODING 243
SWIDTH 42 0
DWIDTH 8 0
BBX 0 0 8 8
BITMAP
ENDCHAR
STARTCHAR <unknown>
ENCODING 244
SWIDTH 42 0
DWIDTH 8 0
BBX 7 7 1 0
BITMAP
80
7C
A2
92
8A
7C
02
ENDCHAR
STARTCHAR <unknown>
ENCODING 245
SWIDTH 42 0
DWIDTH 8 0
BBX 6 8 1 -1
BITMAP
FC
00
30
30
00
30
20
40
ENDCHAR
STARTCHAR <unknown>
ENCODING 246
SWIDTH 42 0
DWIDTH 8 0
BBX 7 9 1 -2
BITMAP
FE
00
10
92
54
38
54
92
10
ENDCHAR
STARTCHAR <unknown>
ENCODING 247
SWIDTH 42 0
DWIDTH 8 0
BBX 7 9 1 -1
BITMAP
10
10
7C
92
92
92
7C
10
10
ENDCHAR
STARTCHAR <unknown>
ENCODING 248
SWIDTH 42 0
DWIDTH 8 0
BBX 0 0 8 8
BITMAP
ENDCHAR
STARTCHAR <unknown>
ENCODING 249
SWIDTH 42 0
DWIDTH 8 0
BBX 0 0 8 8
BITMAP
ENDCHAR
STARTCHAR <unknown>
ENCODING 250
SWIDTH 42 0
DWIDTH 8 0
BBX 6 7 1 1
BITMAP
10
10
7C
90
90
7C
10
ENDCHAR
STARTCHAR <unknown>
ENCODING 251
SWIDTH 42 0
DWIDTH 8 0
BBX 6 5 1 1
BITMAP
20
40
FC
40
20
ENDCHAR
STARTCHAR <unknown>
ENCODING 252
SWIDTH 42 0
DWIDTH 8 0
BBX 7 8 1 -2
BITMAP
10
28
28
44
44
FE
00
FE
ENDCHAR
STARTCHAR <unknown>
ENCODING 253
SWIDTH 42 0
DWIDTH 8 0
BBX 6 5 1 1
BITMAP
10
08
FC
08
10
ENDCHAR
STARTCHAR <unknown>
ENCODING 254
SWIDTH 42 0
DWIDTH 8 0
BBX 6 5 1 2
BITMAP
30
48
84
48
30
ENDCHAR
STARTCHAR <unknown>
ENCODING 255
SWIDTH 42 0
DWIDTH 8 0
BBX 6 9 1 -2
BITMAP
FC
FC
FC
FC
FC
FC
FC
FC
FC
ENDCHAR
ENDFONT
